<mxfile host="drawio-plugin" modified="2022-08-17T12:12:22.631Z" agent="5.0 (Macintosh; Intel Mac OS X 10_15_7) AppleWebKit/537.36 (KHTML, like Gecko) Chrome/97.0.4692.45 Safari/537.36" etag="jTuzmF2HXAjMWfdU-TTd" version="15.5.4" type="embed"><diagram id="23iRSUPoRavnBvh4doch" name="Page-1"><mxGraphModel dx="673" dy="633" grid="1" gridSize="10" guides="1" tooltips="1" connect="1" arrows="1" fold="1" page="1" pageScale="1" pageWidth="827" pageHeight="1169" math="1" shadow="0"><root><mxCell id="0"/><mxCell id="1" parent="0"/><mxCell id="WK4-7_jqqEs10oTjAUMn-1" value="Learning Agent l1" style="shape=umlFrame;whiteSpace=wrap;html=1;fillColor=#76608a;fontColor=#ffffff;strokeColor=#B5739D;rounded=0;fontSize=14;width=130;height=30;strokeWidth=1;" parent="1" vertex="1"><mxGeometry x="460" y="40" width="300" height="210" as="geometry"/></mxCell><mxCell id="WK4-7_jqqEs10oTjAUMn-13" value="2) Decision" style="shape=umlFrame;whiteSpace=wrap;html=1;fontSize=14;fontColor=#ffffff;fillColor=#76608a;strokeColor=#B5739D;width=90;height=20;dashed=1;direction=west;" parent="1" vertex="1"><mxGeometry x="470" y="150" width="280" height="90" as="geometry"/></mxCell><mxCell id="WK4-7_jqqEs10oTjAUMn-9" style="edgeStyle=orthogonalEdgeStyle;orthogonalLoop=1;jettySize=auto;html=1;exitX=1;exitY=0.5;exitDx=0;exitDy=0;exitPerimeter=0;entryX=0;entryY=0.5;entryDx=0;entryDy=0;entryPerimeter=0;labelBackgroundColor=#F5F5F5;fontSize=14;fontColor=#B5739D;strokeWidth=2;fillColor=#6a00ff;strokeColor=#3700CC;" parent="1" source="WK4-7_jqqEs10oTjAUMn-2" target="WK4-7_jqqEs10oTjAUMn-3" edge="1"><mxGeometry relative="1" as="geometry"/></mxCell><mxCell id="WK4-7_jqqEs10oTjAUMn-10" style="edgeStyle=orthogonalEdgeStyle;orthogonalLoop=1;jettySize=auto;html=1;exitX=1;exitY=0.5;exitDx=0;exitDy=0;exitPerimeter=0;entryX=0;entryY=0.5;entryDx=0;entryDy=0;entryPerimeter=0;labelBackgroundColor=#F5F5F5;fontSize=14;fontColor=#B5739D;strokeWidth=2;fillColor=#6a00ff;strokeColor=#3700CC;" parent="1" source="WK4-7_jqqEs10oTjAUMn-3" target="WK4-7_jqqEs10oTjAUMn-4" edge="1"><mxGeometry relative="1" as="geometry"/></mxCell><mxCell id="WK4-7_jqqEs10oTjAUMn-11" value="&lt;font color=&quot;#49315e&quot;&gt;Actions&lt;br&gt;\( (\mathbf{a_{l1}}, \mathbf{a_{l2}} ) \in \mathbb{A}\)&lt;/font&gt;" style="edgeStyle=orthogonalEdgeStyle;orthogonalLoop=1;jettySize=auto;html=1;labelBackgroundColor=#F5F5F5;fontSize=14;fontColor=#B5739D;strokeWidth=2;entryX=1;entryY=0.5;entryDx=0;entryDy=0;strokeColor=#49315E;" parent="1" source="WK4-7_jqqEs10oTjAUMn-4" target="WK4-7_jqqEs10oTjAUMn-6" edge="1"><mxGeometry x="0.1797" y="-60" relative="1" as="geometry"><mxPoint x="800" y="640" as="targetPoint"/><Array as="points"><mxPoint x="800" y="190"/><mxPoint x="800" y="513"/></Array><mxPoint as="offset"/></mxGeometry></mxCell><mxCell id="WK4-7_jqqEs10oTjAUMn-5" value="Environment" style="shape=umlFrame;whiteSpace=wrap;html=1;fillColor=#76608a;fontColor=#ffffff;strokeColor=#432D57;width=90;height=30;rounded=0;fontSize=14;" parent="1" vertex="1"><mxGeometry x="460" y="460" width="270" height="140" as="geometry"/></mxCell><mxCell id="WK4-7_jqqEs10oTjAUMn-6" value="1) Compute next state" style="rounded=0;whiteSpace=wrap;html=1;fillColor=#76608a;fontColor=#ffffff;strokeColor=#432D57;fontSize=14;" parent="1" vertex="1"><mxGeometry x="540" y="495" width="120" height="35" as="geometry"/></mxCell><mxCell id="WK4-7_jqqEs10oTjAUMn-12" value="Rewards&lt;br&gt;\( (r_{l1}, r_{l2} ) \in \mathbb{R}^{\left|\mathcal{L}\right|}\)" style="edgeStyle=orthogonalEdgeStyle;orthogonalLoop=1;jettySize=auto;html=1;labelBackgroundColor=#F5F5F5;fontSize=14;fontColor=#0080FF;strokeColor=#0080FF;strokeWidth=2;fillColor=#0050ef;" parent="1" source="WK4-7_jqqEs10oTjAUMn-7" target="WK4-7_jqqEs10oTjAUMn-14" edge="1"><mxGeometry x="-0.6504" y="20" relative="1" as="geometry"><mxPoint x="200" y="120" as="targetPoint"/><Array as="points"><mxPoint x="300" y="570"/><mxPoint x="300" y="110"/></Array><mxPoint x="1" as="offset"/></mxGeometry></mxCell><mxCell id="WK4-7_jqqEs10oTjAUMn-7" value="3) Compute rewards" style="rounded=0;whiteSpace=wrap;html=1;fillColor=#1ba1e2;fontColor=#ffffff;strokeColor=#006EAF;fontSize=14;" parent="1" vertex="1"><mxGeometry x="540" y="550" width="120" height="35" as="geometry"/></mxCell><mxCell id="WK4-7_jqqEs10oTjAUMn-8" value="&lt;font color=&quot;#8000ff&quot;&gt;Observations&lt;br&gt;\( (\mathbf{o_{l1}}, \mathbf{o_{l2}} ) \in \mathbb{O}\)&lt;/font&gt;" style="endArrow=classic;html=1;strokeWidth=2;fillColor=#6a00ff;strokeColor=#8000FF;edgeStyle=orthogonalEdgeStyle;exitX=0;exitY=0.5;exitDx=0;exitDy=0;fontSize=14;rounded=1;fontColor=#B5739D;labelBackgroundColor=#F5F5F5;" parent="1" source="WK4-7_jqqEs10oTjAUMn-6" target="WK4-7_jqqEs10oTjAUMn-2" edge="1"><mxGeometry x="-0.5857" y="-33" width="50" height="50" relative="1" as="geometry"><mxPoint x="220" y="480" as="sourcePoint"/><mxPoint x="420" y="320" as="targetPoint"/><Array as="points"><mxPoint x="330" y="513"/><mxPoint x="330" y="190"/></Array><mxPoint as="offset"/></mxGeometry></mxCell><mxCell id="WK4-7_jqqEs10oTjAUMn-14" value="4) Learning" style="shape=umlFrame;whiteSpace=wrap;html=1;fontSize=14;fontColor=#ffffff;fillColor=#76608a;strokeColor=#B5739D;width=90;height=20;dashed=1;" parent="1" vertex="1"><mxGeometry x="470" y="80" width="280" height="60" as="geometry"/></mxCell><mxCell id="WK4-7_jqqEs10oTjAUMn-15" value="\( \mathbf{a_{l2}} \in \mathbb{A}_{l2} \)" style="edgeStyle=orthogonalEdgeStyle;orthogonalLoop=1;jettySize=auto;html=1;labelBackgroundColor=#F5F5F5;fontSize=14;fontColor=#49315E;strokeWidth=2;entryX=1;entryY=0.5;entryDx=0;entryDy=0;strokeColor=#49315E;" parent="1" source="WK4-7_jqqEs10oTjAUMn-27" target="WK4-7_jqqEs10oTjAUMn-7" edge="1"><mxGeometry x="-0.6614" y="15" relative="1" as="geometry"><mxPoint x="670" y="612.5" as="targetPoint"/><mxPoint x="950" y="370" as="sourcePoint"/><Array as="points"><mxPoint x="800" y="365"/><mxPoint x="800" y="568"/></Array><mxPoint as="offset"/></mxGeometry></mxCell><mxCell id="WK4-7_jqqEs10oTjAUMn-16" value="\( \mathbf{o_{l1}} \in \mathbb{O}_{l1} \)" style="endArrow=classic;html=1;strokeWidth=2;fillColor=#6a00ff;strokeColor=#8000FF;edgeStyle=orthogonalEdgeStyle;exitX=0;exitY=0.5;exitDx=0;exitDy=0;fontSize=14;rounded=1;fontColor=#8000FF;labelBackgroundColor=#F5F5F5;" parent="1" source="WK4-7_jqqEs10oTjAUMn-6" edge="1"><mxGeometry x="0.8362" y="-30" width="50" height="50" relative="1" as="geometry"><mxPoint x="550" y="612.5" as="sourcePoint"/><mxPoint x="470" y="130" as="targetPoint"/><Array as="points"><mxPoint x="330" y="513"/><mxPoint x="330" y="130"/></Array><mxPoint as="offset"/></mxGeometry></mxCell><mxCell id="WK4-7_jqqEs10oTjAUMn-17" value="" style="endArrow=classic;html=1;rounded=1;labelBackgroundColor=#F5F5F5;fontSize=14;fontColor=#0080FF;strokeColor=#8000FF;strokeWidth=2;fillColor=#6a00ff;entryX=0.5;entryY=0;entryDx=0;entryDy=0;entryPerimeter=0;edgeStyle=orthogonalEdgeStyle;" parent="1" target="WK4-7_jqqEs10oTjAUMn-2" edge="1"><mxGeometry width="50" height="50" relative="1" as="geometry"><mxPoint x="470" y="130" as="sourcePoint"/><mxPoint x="410" y="160" as="targetPoint"/></mxGeometry></mxCell><mxCell id="WK4-7_jqqEs10oTjAUMn-2" value="State-(D)SOM" style="shape=cylinder3;whiteSpace=wrap;html=1;boundedLbl=1;backgroundOutline=1;size=7;fillColor=#76608a;fontColor=#ffffff;strokeColor=#432D57;rounded=0;fontSize=14;" parent="1" vertex="1"><mxGeometry x="480" y="163" width="60" height="50" as="geometry"/></mxCell><mxCell id="WK4-7_jqqEs10oTjAUMn-3" value="Q-Table" style="shape=cylinder3;whiteSpace=wrap;html=1;boundedLbl=1;backgroundOutline=1;size=7;fillColor=#76608a;fontColor=#ffffff;strokeColor=#432D57;rounded=0;fontSize=14;" parent="1" vertex="1"><mxGeometry x="570" y="163" width="60" height="50" as="geometry"/></mxCell><mxCell id="WK4-7_jqqEs10oTjAUMn-4" value="Action-(D)SOM" style="shape=cylinder3;whiteSpace=wrap;html=1;boundedLbl=1;backgroundOutline=1;size=7;fillColor=#76608a;fontColor=#ffffff;strokeColor=#432D57;rounded=0;fontSize=14;" parent="1" vertex="1"><mxGeometry x="660" y="163" width="60" height="50" as="geometry"/></mxCell><mxCell id="WK4-7_jqqEs10oTjAUMn-21" value="" style="endArrow=classic;html=1;rounded=1;labelBackgroundColor=#F5F5F5;fontSize=14;fontColor=#0080FF;strokeColor=#0080FF;strokeWidth=2;exitX=0;exitY=0.483;exitDx=0;exitDy=0;exitPerimeter=0;entryX=0.855;entryY=0;entryDx=0;entryDy=2.03;entryPerimeter=0;edgeStyle=orthogonalEdgeStyle;" parent="1" source="WK4-7_jqqEs10oTjAUMn-14" target="WK4-7_jqqEs10oTjAUMn-3" edge="1"><mxGeometry width="50" height="50" relative="1" as="geometry"><mxPoint x="420" y="420" as="sourcePoint"/><mxPoint x="470" y="370" as="targetPoint"/><Array as="points"><mxPoint x="621" y="109"/></Array></mxGeometry></mxCell><mxCell id="WK4-7_jqqEs10oTjAUMn-22" value="" style="endArrow=classic;html=1;rounded=1;labelBackgroundColor=#F5F5F5;fontSize=14;fontColor=#0080FF;strokeColor=#0080FF;strokeWidth=2;edgeStyle=orthogonalEdgeStyle;" parent="1" target="WK4-7_jqqEs10oTjAUMn-4" edge="1"><mxGeometry width="50" height="50" relative="1" as="geometry"><mxPoint x="470" y="109" as="sourcePoint"/><mxPoint x="690" y="162" as="targetPoint"/><Array as="points"><mxPoint x="690" y="109"/></Array></mxGeometry></mxCell><mxCell id="WK4-7_jqqEs10oTjAUMn-24" value="" style="endArrow=classic;html=1;rounded=1;labelBackgroundColor=#F5F5F5;fontSize=14;fontColor=#0080FF;strokeColor=#8000FF;strokeWidth=2;fillColor=#6a00ff;entryX=0.145;entryY=0;entryDx=0;entryDy=2.03;entryPerimeter=0;edgeStyle=orthogonalEdgeStyle;" parent="1" target="WK4-7_jqqEs10oTjAUMn-3" edge="1"><mxGeometry width="50" height="50" relative="1" as="geometry"><mxPoint x="470" y="130" as="sourcePoint"/><mxPoint x="530" y="380" as="targetPoint"/></mxGeometry></mxCell><mxCell id="WK4-7_jqqEs10oTjAUMn-25" value="Learning Agent l2" style="shape=umlFrame;whiteSpace=wrap;html=1;fillColor=#76608a;fontColor=#ffffff;strokeColor=#B5739D;rounded=0;fontSize=14;width=130;height=20;strokeWidth=1;" parent="1" vertex="1"><mxGeometry x="460" y="270" width="300" height="130" as="geometry"/></mxCell><mxCell id="WK4-7_jqqEs10oTjAUMn-26" value="4) Learning" style="rounded=0;whiteSpace=wrap;html=1;dashed=1;fontSize=14;fontColor=#ffffff;strokeColor=#432D57;strokeWidth=1;fillColor=#76608a;" parent="1" vertex="1"><mxGeometry x="540" y="300" width="130" height="30" as="geometry"/></mxCell><mxCell id="WK4-7_jqqEs10oTjAUMn-27" value="2) Decision" style="rounded=0;whiteSpace=wrap;html=1;dashed=1;fontSize=14;fontColor=#ffffff;strokeColor=#432D57;strokeWidth=1;fillColor=#76608a;" parent="1" vertex="1"><mxGeometry x="540" y="350" width="130" height="30" as="geometry"/></mxCell><mxCell id="WK4-7_jqqEs10oTjAUMn-28" value="\( \mathbf{o_{l2}} \in \mathbb{O}_{l2} \)" style="endArrow=classic;html=1;strokeWidth=2;fillColor=#6a00ff;strokeColor=#8000FF;edgeStyle=orthogonalEdgeStyle;exitX=0;exitY=0.5;exitDx=0;exitDy=0;fontSize=14;rounded=1;fontColor=#8000FF;labelBackgroundColor=#F5F5F5;" parent="1" source="WK4-7_jqqEs10oTjAUMn-6" target="WK4-7_jqqEs10oTjAUMn-27" edge="1"><mxGeometry x="0.5771" y="25" width="50" height="50" relative="1" as="geometry"><mxPoint x="550" y="612.5" as="sourcePoint"/><mxPoint x="490" y="200.0588235294117" as="targetPoint"/><Array as="points"><mxPoint x="330" y="513"/><mxPoint x="330" y="365"/></Array><mxPoint as="offset"/></mxGeometry></mxCell><mxCell id="WK4-7_jqqEs10oTjAUMn-29" value="\( r_{l2} \in \mathbb{R} \)" style="edgeStyle=orthogonalEdgeStyle;orthogonalLoop=1;jettySize=auto;html=1;labelBackgroundColor=#F5F5F5;fontSize=14;fontColor=#0080FF;strokeColor=#0080FF;strokeWidth=2;fillColor=#0050ef;entryX=0;entryY=0.25;entryDx=0;entryDy=0;" parent="1" source="WK4-7_jqqEs10oTjAUMn-7" target="WK4-7_jqqEs10oTjAUMn-26" edge="1"><mxGeometry x="0.651" y="18" relative="1" as="geometry"><mxPoint x="480" y="120.05882352941171" as="targetPoint"/><mxPoint x="550" y="667.5" as="sourcePoint"/><Array as="points"><mxPoint x="300" y="570"/><mxPoint x="300" y="308"/></Array><mxPoint y="1" as="offset"/></mxGeometry></mxCell><mxCell id="WK4-7_jqqEs10oTjAUMn-30" value="" style="endArrow=classic;html=1;strokeWidth=2;fillColor=#6a00ff;strokeColor=#8000FF;edgeStyle=orthogonalEdgeStyle;exitX=0;exitY=0.5;exitDx=0;exitDy=0;fontSize=14;rounded=1;fontColor=#B5739D;labelBackgroundColor=#F5F5F5;entryX=0;entryY=0.75;entryDx=0;entryDy=0;" parent="1" source="WK4-7_jqqEs10oTjAUMn-6" target="WK4-7_jqqEs10oTjAUMn-26" edge="1"><mxGeometry x="-0.5335" y="-32" width="50" height="50" relative="1" as="geometry"><mxPoint x="550" y="612.5" as="sourcePoint"/><mxPoint x="550" y="375" as="targetPoint"/><Array as="points"><mxPoint x="330" y="513"/><mxPoint x="330" y="323"/></Array><mxPoint as="offset"/></mxGeometry></mxCell><mxCell id="3" value="&lt;span style=&quot;font-family: helvetica; font-size: 14px; font-style: normal; font-weight: 400; letter-spacing: normal; text-align: center; text-indent: 0px; text-transform: none; word-spacing: 0px; display: inline; float: none;&quot;&gt;\(\mathbf{a_{l1}} \in \mathbb{A}_{l1} \)&lt;/span&gt;" style="text;whiteSpace=wrap;html=1;fontSize=14;fontColor=#49315E;labelBackgroundColor=#F5F5F5;" parent="1" vertex="1"><mxGeometry x="760" y="160" width="30" height="30" as="geometry"/></mxCell><mxCell id="4" value="\( r_{l1} \in \mathbb{R} \)" style="text;html=1;align=center;verticalAlign=middle;resizable=0;points=[];autosize=1;strokeColor=none;fillColor=none;fontSize=14;fontColor=#0080FF;" parent="1" vertex="1"><mxGeometry x="295" y="90" width="170" height="20" as="geometry"/></mxCell></root></mxGraphModel></diagram></mxfile>